<?xml version="1.0" encoding="utf-8"?>
<!-- Generator: Adobe Illustrator 27.2.0, SVG Export Plug-In . SVG Version: 6.00 Build 0)  -->
<svg version="1.1" id="Layer_1" xmlns="http://www.w3.org/2000/svg" xmlns:xlink="http://www.w3.org/1999/xlink" x="0px" y="0px"
	 viewBox="0 0 128 128" style="enable-background:new 0 0 128 128;" xml:space="preserve">
<style type="text/css">
	.st0{fill:#38BDF8;}
	.st1{fill:#FFFFFF;}
</style>
<path class="st0" d="M13.2,56.1c-3.5,0-5.7,1.8-6.6,5.3c1.3-1.8,2.9-2.4,4.6-2c1,0.2,1.7,1,2.5,1.8c1.3,1.3,2.8,2.9,6.1,2.9
	c3.5,0,5.7-1.8,6.6-5.3c-1.3,1.8-2.9,2.4-4.6,2c-1-0.2-1.7-1-2.5-1.8C18,57.6,16.5,56.1,13.2,56.1z M6.6,64c-3.5,0-5.7,1.8-6.6,5.3
	c1.3-1.8,2.9-2.4,4.6-2c1,0.2,1.7,1,2.5,1.8c1.3,1.3,2.8,2.9,6.1,2.9c3.5,0,5.7-1.8,6.6-5.3c-1.3,1.8-2.9,2.4-4.6,2
	c-1-0.2-1.7-1-2.5-1.8C11.4,65.5,9.9,64,6.6,64z"/>
<path d="M39.7,62.8h-2.3v4.5c0,1.2,0.8,1.2,2.3,1.1v1.8c-3.1,0.4-4.3-0.5-4.3-2.9v-4.5h-1.7v-1.9h1.7v-2.5l2-0.6v3.1h2.3L39.7,62.8
	L39.7,62.8z"/>
<path d="M38.4,69.9c-1,0-1.7-0.2-2.1-0.6c-0.4-0.4-0.6-1.1-0.6-2.1v-4.8h-1.7v-1.4h1.7v-2.6l1.4-0.4v3h2.3v1.4h-2.3v4.8
	c0,1.3,0.9,1.4,1.7,1.4c0.2,0,0.4,0,0.6,0v1.2C39,69.9,38.7,69.9,38.4,69.9z"/>
<path d="M48.5,60.8h2v9.3h-2v-1.4c-0.7,1-1.8,1.6-3.2,1.6c-2.5,0-4.6-2.2-4.6-4.9c0-2.8,2.1-4.9,4.6-4.9c1.4,0,2.5,0.6,3.2,1.6
	L48.5,60.8z"/>
<path d="M45.2,70.1c-2.4,0-4.3-2.1-4.3-4.6c0-2.6,1.9-4.6,4.3-4.6c1.3,0,2.3,0.5,3,1.5l0.5,0.7l0-1.9h1.4v8.7h-1.4v-1.9l-0.5,0.7
	C47.6,69.6,46.5,70.1,45.2,70.1z"/>
<path class="st1" d="M45.5,68.4c1.7,0,3-1.2,3-3c0-1.7-1.3-3-3-3c-1.7,0-2.9,1.2-2.9,3C42.6,67.2,43.9,68.4,45.5,68.4L45.5,68.4z"/>
<path d="M53.8,59.4c-0.7,0-1.3-0.6-1.3-1.3c0-0.7,0.6-1.3,1.3-1.3c0.7,0,1.3,0.6,1.3,1.3C55.1,58.8,54.5,59.4,53.8,59.4z"/>
<path d="M53.8,59.1c-0.5,0-1-0.5-1-1c0-0.5,0.4-1,1-1c0.5,0,1,0.4,1,1c0,0.2-0.1,0.5-0.3,0.7C54.4,59,54.1,59.1,53.8,59.1z"/>
<rect x="52.8" y="60.8" width="2" height="9.3"/>
<rect x="53.1" y="61.1" width="1.4" height="8.7"/>
<rect x="57.1" y="56.6" width="2" height="13.6"/>
<rect x="57.4" y="56.8" width="1.4" height="13"/>
<polygon points="72.2,60.8 74.4,60.8 71.4,70.1 69.4,70.1 67.5,63.9 65.6,70.1 63.6,70.1 60.7,60.8 62.8,60.8 64.6,67.3 66.5,60.8 
	68.5,60.8 70.4,67.3 "/>
<polygon points="69.7,69.8 67.5,62.9 65.4,69.8 63.8,69.8 61.1,61.1 62.6,61.1 64.6,68.3 66.8,61.1 68.3,61.1 70.4,68.3 72.4,61.1 
	74,61.1 71.2,69.8 "/>
<path d="M76.8,59.4c-0.7,0-1.3-0.6-1.3-1.3c0-0.7,0.6-1.3,1.3-1.3c0.7,0,1.3,0.6,1.3,1.3C78.1,58.8,77.6,59.4,76.8,59.4L76.8,59.4z"
	/>
<path d="M76.8,59.1c-0.5,0-1-0.5-1-1c0-0.5,0.4-1,1-1c0.5,0,1,0.4,1,1c0,0.3-0.1,0.5-0.3,0.7C77.4,59,77.1,59.1,76.8,59.1z"/>
<rect x="75.8" y="60.8" width="2" height="9.3"/>
<rect x="76.1" y="61.1" width="1.4" height="8.7"/>
<path d="M85.1,60.6c2.1,0,3.6,1.4,3.6,3.8v5.7h-2v-5.5c0-1.4-0.8-2.1-2.1-2.1c-1.3,0-2.4,0.8-2.4,2.7v5h-2v-9.3h2v1.2
	C82.8,61.1,83.8,60.6,85.1,60.6L85.1,60.6z"/>
<path d="M80.5,69.9v-8.7h1.4V63l0.5-0.8c0.6-0.9,1.4-1.3,2.6-1.3c2,0,3.3,1.4,3.3,3.5v5.4h-1.4v-5.2c0-1.5-0.9-2.4-2.4-2.4
	c-1.7,0-2.7,1.1-2.7,3v4.7H80.5z"/>
<path d="M98.2,57.1h2v13h-2v-1.4c-0.7,1-1.8,1.6-3.2,1.6c-2.5,0-4.6-2.2-4.6-4.9c0-2.8,2.1-4.9,4.6-4.9c1.4,0,2.6,0.6,3.2,1.6V57.1z
	"/>
<path d="M94.9,70.1c-2.4,0-4.3-2.1-4.3-4.6c0-2.6,1.9-4.6,4.3-4.6c1.3,0,2.3,0.5,3,1.5l0.5,0.7v-5.6h1.4v12.5h-1.4v-2l-0.5,0.7
	C97.3,69.6,96.2,70.1,94.9,70.1z"/>
<path d="M95.2,68.4c1.7,0,2.9-1.2,2.9-3c0-1.7-1.3-3-2.9-3c-1.7,0-3,1.2-3,3C92.3,67.2,93.6,68.4,95.2,68.4L95.2,68.4z"/>
<path class="st1" d="M95.2,68.2c-1.5,0-2.7-1.1-2.7-2.7c0-1.6,1.1-2.7,2.7-2.7c1.5,0,2.7,1.1,2.7,2.7C97.9,67,96.8,68.2,95.2,68.2
	L95.2,68.2z"/>
<path d="M106.9,70.4c-2.8,0-4.9-2.1-4.9-4.9c0-2.8,2.1-4.9,4.9-4.9c1.8,0,3.4,1,4.2,2.4l-1.7,1c-0.4-0.9-1.3-1.4-2.4-1.4
	c-1.6,0-2.9,1.2-2.9,2.9c0,1.7,1.2,2.9,2.9,2.9c1.1,0,2-0.6,2.5-1.4l1.7,1C110.3,69.4,108.7,70.4,106.9,70.4z"/>
<path d="M106.9,70.1c-2.6,0-4.6-2-4.6-4.6c0-2.6,2-4.6,4.6-4.6c1.6,0,3,0.8,3.8,2l-1.2,0.7c-0.5-0.8-1.5-1.3-2.6-1.3
	c-1.8,0-3.2,1.4-3.2,3.2c0,1.8,1.4,3.2,3.2,3.2c1.1,0,2-0.5,2.6-1.3l1.2,0.7C109.9,69.3,108.5,70.1,106.9,70.1z"/>
<path d="M114.4,63.4c0,1.7,5,0.7,5,4.1c0,1.9-1.6,2.9-3.6,2.9c-1.9,0-3.2-0.9-3.8-2.2l1.7-1c0.3,0.9,1,1.4,2.1,1.4
	c0.9,0,1.6-0.3,1.6-1.1c0-1.6-5-0.7-5-4c0-1.8,1.5-2.8,3.4-2.8c1.5,0,2.8,0.7,3.5,1.9l-1.7,1c-0.3-0.7-1-1.1-1.8-1.1
	C115.1,62.4,114.4,62.7,114.4,63.4z"/>
<path d="M115.8,70.1c-1.6,0-2.8-0.6-3.4-1.8l1.2-0.7c0.4,0.8,1.2,1.2,2.2,1.2c1.2,0,1.9-0.5,1.9-1.3c0-0.9-1-1.2-2.1-1.5
	c-1.4-0.4-2.9-0.8-2.9-2.6c0-1.5,1.3-2.6,3.1-2.6c1.3,0,2.4,0.6,3.1,1.5l-1.2,0.7c-0.4-0.6-1-0.9-1.9-0.9c0,0,0,0,0,0
	c-1,0-1.6,0.5-1.6,1.2c0,0.9,1,1.2,2.1,1.5c1.4,0.4,2.9,0.8,2.9,2.6C119.1,69.3,117.5,70.1,115.8,70.1z"/>
<path d="M123,63.4c0,1.7,5,0.7,5,4.1c0,1.9-1.6,2.9-3.6,2.9c-1.9,0-3.2-0.9-3.8-2.2l1.7-1c0.3,0.9,1.1,1.4,2.1,1.4
	c0.9,0,1.6-0.3,1.6-1.1c0-1.6-5-0.7-5-4c0-1.8,1.5-2.8,3.4-2.8c1.5,0,2.8,0.7,3.4,1.9l-1.7,1c-0.3-0.7-1-1.1-1.8-1.1
	C123.6,62.4,123,62.7,123,63.4z"/>
<path d="M124.4,70.1c-1.6,0-2.8-0.6-3.4-1.8l1.2-0.7c0.4,0.8,1.2,1.2,2.2,1.2c1.2,0,1.9-0.5,1.9-1.3c0-0.9-1-1.2-2.1-1.5
	c-1.4-0.4-2.9-0.8-2.9-2.6c0-1.5,1.3-2.6,3.1-2.6c1.3,0,2.4,0.6,3.1,1.5l-1.2,0.7c-0.4-0.6-1-0.9-1.9-0.9c0,0,0,0,0,0
	c-1,0-1.6,0.5-1.6,1.2c0,0.9,1,1.2,2.1,1.5c1.4,0.4,2.9,0.8,2.9,2.6C127.7,69.3,126,70.1,124.4,70.1z"/>
</svg>
