<?xml version="1.0" encoding="utf-8"?>
<!-- Generator: Adobe Illustrator 27.2.0, SVG Export Plug-In . SVG Version: 6.00 Build 0)  -->
<svg version="1.1" id="Layer_1" xmlns="http://www.w3.org/2000/svg" xmlns:xlink="http://www.w3.org/1999/xlink" x="0px" y="0px"
	 viewBox="0 0 128 128" style="enable-background:new 0 0 128 128;" xml:space="preserve">
<style type="text/css">
	.st0{fill:#38BDF8;}
	.st1{fill:#FFFFFF;}
</style>
<path class="st0" d="M64,12.1c-17,0-27.6,8.6-31.8,25.6C38.6,29.1,46,26,54.5,28.2c4.8,1.2,8.3,4.7,12.2,8.7
	c6.3,6.4,13.5,13.8,29.3,13.8c17,0,27.6-8.6,31.8-25.6c-6.4,8.6-13.9,11.7-22.3,9.5c-4.8-1.2-8.3-4.7-12.2-8.7
	C87,19.5,79.8,12.1,64,12.1z M32.1,50.4c-17,0-27.6,8.6-31.8,25.6c6.4-8.6,13.9-11.7,22.3-9.5c4.8,1.2,8.3,4.7,12.2,8.7
	C41,81.5,48.2,88.8,64,88.8c17,0,27.6-8.6,31.8-25.6C89.4,71.8,82,75,73.5,72.8c-4.8-1.2-8.3-4.7-12.2-8.7
	C55.2,57.7,48,50.4,32.1,50.4z"/>
<g>
	<path d="M8.4,106.6H5.3v6.1c0,1.6,1,1.6,3.1,1.5v2.4c-4.2,0.5-5.8-0.6-5.8-3.9v-6.1H0.2V104h2.3v-3.4l2.7-0.8v4.2h3.1L8.4,106.6
		L8.4,106.6z"/>
	<path d="M6.7,116.3c-1.4,0-2.3-0.3-2.9-0.9c-0.6-0.6-0.9-1.5-0.9-2.8v-6.4H0.6v-1.8h2.3v-3.5l1.9-0.6v4.1h3.1v1.8H4.9v6.4
		c0,1.8,1.2,1.9,2.3,1.9c0.2,0,0.5,0,0.8,0v1.7C7.5,116.2,7.1,116.3,6.7,116.3z"/>
	<path d="M20.3,104H23v12.6h-2.7v-1.8c-1,1.3-2.4,2.1-4.4,2.1c-3.4,0-6.3-2.9-6.3-6.6c0-3.7,2.8-6.6,6.3-6.6c2,0,3.4,0.8,4.4,2.1
		L20.3,104z"/>
	<path d="M15.9,116.5c-3.2,0-5.9-2.8-5.9-6.2c0-3.5,2.6-6.2,5.9-6.2c1.7,0,3.2,0.7,4.1,2l0.7,1l0-2.6h1.9v11.8h-1.9v-2.6l-0.7,1
		C19,115.8,17.6,116.5,15.9,116.5z"/>
	<path class="st1" d="M16.3,114.3c2.3,0,4-1.7,4-4c0-2.3-1.7-4-4-4c-2.3,0-4,1.7-4,4C12.3,112.6,14,114.3,16.3,114.3L16.3,114.3z"/>
	<path d="M27.5,102.1c-0.9,0-1.7-0.8-1.7-1.7c0-0.9,0.8-1.7,1.7-1.7c0.9,0,1.7,0.8,1.7,1.7C29.3,101.3,28.4,102.1,27.5,102.1z"/>
	<path d="M27.5,101.7c-0.7,0-1.3-0.6-1.3-1.3c0-0.7,0.6-1.3,1.3-1.3c0.7,0,1.3,0.6,1.3,1.3c0,0.3-0.1,0.7-0.4,0.9
		C28.2,101.5,27.9,101.7,27.5,101.7z"/>
	<rect x="26.1" y="104" width="2.7" height="12.6"/>
	<rect x="26.5" y="104.3" width="1.9" height="11.8"/>
	<rect x="32" y="98.2" width="2.7" height="18.4"/>
	<rect x="32.4" y="98.6" width="1.9" height="17.6"/>
	<polygon points="52.4,104 55.3,104 51.3,116.5 48.6,116.5 46,108.1 43.4,116.5 40.7,116.5 36.8,104 39.6,104 42.1,112.7 44.7,104 
		47.3,104 49.9,112.7 	"/>
	<polygon points="48.9,116.2 46,106.8 43.1,116.2 41,116.2 37.3,104.3 39.3,104.3 42.1,114 45,104.3 47,104.3 49.9,114 52.7,104.3 
		54.7,104.3 51,116.2 	"/>
	<path d="M58.6,102.1c-0.9,0-1.7-0.8-1.7-1.7c0-0.9,0.8-1.7,1.7-1.7c0.9,0,1.7,0.8,1.7,1.7C60.4,101.3,59.6,102.1,58.6,102.1
		L58.6,102.1z"/>
	<path d="M58.6,101.7c-0.7,0-1.3-0.6-1.3-1.3c0-0.7,0.6-1.3,1.3-1.3c0.7,0,1.3,0.6,1.3,1.3c0,0.3-0.1,0.7-0.4,0.9
		C59.3,101.5,59,101.7,58.6,101.7z"/>
	<rect x="57.2" y="104" width="2.7" height="12.6"/>
	<rect x="57.6" y="104.3" width="1.9" height="11.8"/>
	<path d="M69.7,103.6c2.8,0,4.8,1.9,4.8,5.2v7.7h-2.7v-7.4c0-1.9-1.1-2.9-2.8-2.9c-1.8,0-3.2,1-3.2,3.6v6.8h-2.7V104h2.7v1.6
		C66.7,104.3,68,103.6,69.7,103.6L69.7,103.6z"/>
	<path d="M63.5,116.2v-11.8h1.9v2.6l0.7-1.1c0.8-1.2,2-1.8,3.6-1.8c2.7,0,4.4,1.9,4.4,4.8v7.4h-1.9v-7.1c0-2.1-1.2-3.3-3.2-3.3
		c-2.3,0-3.6,1.5-3.6,4v6.4H63.5z"/>
	<path d="M87.5,98.9h2.7v17.6h-2.7v-1.8c-0.9,1.3-2.4,2.1-4.4,2.1c-3.4,0-6.3-2.9-6.3-6.6c0-3.7,2.8-6.6,6.3-6.6
		c2,0,3.4,0.8,4.4,2.1V98.9z"/>
	<path d="M83.1,116.5c-3.2,0-5.9-2.8-5.9-6.2c0-3.5,2.6-6.2,5.9-6.2c1.7,0,3.2,0.7,4.1,2l0.7,1v-7.6h1.9v16.8h-1.9v-2.6l-0.7,1
		C86.2,115.8,84.8,116.5,83.1,116.5z"/>
	<path d="M83.5,114.3c2.3,0,4-1.7,4-4c0-2.3-1.7-4-4-4c-2.3,0-4,1.7-4,4C79.5,112.6,81.2,114.3,83.5,114.3L83.5,114.3z"/>
	<path class="st1" d="M83.5,113.9c-2.1,0-3.6-1.5-3.6-3.6c0-2.1,1.5-3.6,3.6-3.6c2.1,0,3.6,1.5,3.6,3.6
		C87.1,112.4,85.6,113.9,83.5,113.9L83.5,113.9z"/>
	<path d="M99.3,116.9c-3.8,0-6.7-2.9-6.7-6.6c0-3.8,2.8-6.6,6.7-6.6c2.5,0,4.6,1.3,5.6,3.2l-2.3,1.4c-0.5-1.2-1.8-1.9-3.3-1.9
		c-2.2,0-3.9,1.7-3.9,4c0,2.3,1.7,3.9,3.9,3.9c1.5,0,2.7-0.8,3.3-1.9l2.3,1.3C103.9,115.6,101.7,116.9,99.3,116.9z"/>
	<path d="M99.3,116.5c-3.6,0-6.3-2.7-6.3-6.2c0-3.6,2.7-6.2,6.3-6.2c2.2,0,4.1,1,5.1,2.7l-1.7,1c-0.7-1.1-2-1.8-3.5-1.8
		c-2.4,0-4.3,1.9-4.3,4.3c0,2.5,1.8,4.3,4.3,4.3c1.5,0,2.7-0.7,3.5-1.8l1.7,0.9C103.4,115.4,101.4,116.5,99.3,116.5z"/>
	<path d="M109.4,107.4c0,2.3,6.8,0.9,6.8,5.6c0,2.5-2.2,3.9-4.9,3.9c-2.5,0-4.3-1.2-5.1-2.9l2.3-1.4c0.4,1.2,1.4,1.8,2.8,1.8
		c1.2,0,2.1-0.4,2.1-1.4c0-2.2-6.8-1-6.8-5.5c0-2.4,2-3.9,4.6-3.9c2.1,0,3.8,0.9,4.7,2.6l-2.3,1.3c-0.4-1-1.3-1.4-2.4-1.4
		C110.3,106.1,109.4,106.5,109.4,107.4z"/>
	<path d="M111.3,116.5c-2.1,0-3.8-0.9-4.6-2.4l1.6-1c0.5,1.1,1.6,1.7,3,1.7c1.6,0,2.5-0.7,2.5-1.8c0-1.2-1.4-1.6-2.8-2
		c-1.9-0.5-4-1.1-4-3.5c0-2,1.7-3.5,4.2-3.5c1.8,0,3.3,0.7,4.1,2.1l-1.6,0.9c-0.5-0.8-1.4-1.3-2.5-1.3c0,0,0,0,0,0
		c-1.4,0-2.2,0.7-2.2,1.7c0,1.2,1.4,1.6,2.8,2c1.9,0.5,4,1.1,4,3.6C115.8,115.4,113.5,116.5,111.3,116.5z"/>
	<path d="M121,107.4c0,2.3,6.8,0.9,6.8,5.6c0,2.5-2.2,3.9-4.9,3.9c-2.5,0-4.3-1.2-5.1-2.9l2.3-1.4c0.4,1.2,1.4,1.8,2.8,1.8
		c1.2,0,2.1-0.4,2.1-1.4c0-2.2-6.8-1-6.8-5.5c0-2.4,2-3.9,4.6-3.9c2.1,0,3.8,0.9,4.7,2.6l-2.3,1.3c-0.4-1-1.3-1.4-2.4-1.4
		C121.9,106.1,121,106.5,121,107.4z"/>
	<path d="M122.9,116.5c-2.1,0-3.8-0.9-4.6-2.4l1.6-1c0.5,1.1,1.6,1.7,3,1.7c1.6,0,2.5-0.7,2.5-1.8c0-1.2-1.4-1.6-2.8-2
		c-1.9-0.5-4-1.1-4-3.5c0-2,1.7-3.5,4.2-3.5c1.8,0,3.3,0.7,4.1,2.1l-1.6,0.9c-0.5-0.8-1.4-1.3-2.5-1.3c0,0,0,0,0,0
		c-1.4,0-2.2,0.7-2.2,1.7c0,1.2,1.4,1.6,2.8,2c1.9,0.5,4,1.1,4,3.6C127.4,115.4,125.1,116.5,122.9,116.5z"/>
</g>
</svg>
